<svg xmlns="http://www.w3.org/2000/svg" viewBox="0 0 1920 1080" preserveAspectRatio="none">
  <defs>
    <linearGradient id="pinkFade" x1="0" y1="0" x2="1" y2="0">
      <stop offset="0" stop-color="#ff2b8a" stop-opacity="0.02" />
      <stop offset="0.16" stop-color="#ff2b8a" stop-opacity="0.72" />
      <stop offset="0.45" stop-color="#e52aab" stop-opacity="0.54" />
      <stop offset="0.72" stop-color="#a452ff" stop-opacity="0.28" />
      <stop offset="1" stop-color="#a452ff" stop-opacity="0" />
    </linearGradient>
    <linearGradient id="violetFade" x1="0" y1="0" x2="1" y2="0">
      <stop offset="0" stop-color="#a452ff" stop-opacity="0.02" />
      <stop offset="0.2" stop-color="#ff2b8a" stop-opacity="0.38" />
      <stop offset="0.58" stop-color="#e52aab" stop-opacity="0.32" />
      <stop offset="1" stop-color="#a452ff" stop-opacity="0" />
    </linearGradient>
    <filter id="bandGlow" x="-10%" y="-180%" width="130%" height="460%">
      <feGaussianBlur stdDeviation="12" />
    </filter>
    <filter id="bandSoft" x="-10%" y="-180%" width="130%" height="460%">
      <feGaussianBlur stdDeviation="28" />
    </filter>
  </defs>
  <g opacity="0.88">
    <path d="M -120 950 C 130 790 335 776 548 838 C 784 908 920 946 1126 852 C 1318 765 1510 770 1695 832" fill="none" stroke="url(#pinkFade)" stroke-width="46" stroke-linecap="round" filter="url(#bandSoft)" opacity="0.4" />
    <path d="M -90 934 C 150 794 354 788 552 848 C 784 918 918 932 1115 842 C 1292 762 1492 780 1660 838" fill="none" stroke="url(#pinkFade)" stroke-width="10" stroke-linecap="round" filter="url(#bandGlow)" opacity="0.84" />
    <path d="M -70 930 C 160 804 358 800 546 854 C 770 916 922 914 1098 836 C 1265 762 1468 790 1636 842" fill="none" stroke="#ffe2f6" stroke-width="1.4" stroke-linecap="round" opacity="0.56" />
    <path d="M -160 1018 C 160 910 354 890 610 930 C 875 972 1058 918 1255 840 C 1410 780 1558 802 1730 868" fill="none" stroke="url(#violetFade)" stroke-width="6" stroke-linecap="round" filter="url(#bandGlow)" opacity="0.52" />
    <path d="M -120 860 C 132 752 338 720 586 770 C 790 812 942 815 1130 750 C 1288 695 1452 702 1600 748" fill="none" stroke="url(#violetFade)" stroke-width="4" stroke-linecap="round" filter="url(#bandGlow)" opacity="0.4" />
    <path d="M -180 1035 C 140 998 365 968 596 990 C 860 1016 1050 984 1278 932 C 1455 892 1610 910 1780 976" fill="none" stroke="url(#pinkFade)" stroke-width="3" stroke-linecap="round" opacity="0.34" />
  </g>
</svg>
