<svg xmlns="http://www.w3.org/2000/svg" viewBox="0 0 1920 1080" preserveAspectRatio="none">
  <defs>
    <linearGradient id="arc" x1="0" y1="0.7" x2="1" y2="0.2">
      <stop offset="0" stop-color="#ff2b8a" stop-opacity="0.72" />
      <stop offset="0.34" stop-color="#ff48b2" stop-opacity="0.55" />
      <stop offset="0.68" stop-color="#a452ff" stop-opacity="0.28" />
      <stop offset="1" stop-color="#a452ff" stop-opacity="0" />
    </linearGradient>
    <filter id="glow" x="-20%" y="-70%" width="150%" height="240%">
      <feGaussianBlur stdDeviation="7" result="blurred" />
      <feMerge>
        <feMergeNode in="blurred" />
        <feMergeNode in="SourceGraphic" />
      </feMerge>
    </filter>
    <filter id="soft" x="-25%" y="-90%" width="160%" height="280%">
      <feGaussianBlur stdDeviation="18" />
    </filter>
  </defs>
  <path d="M -130 690 C 130 345 540 205 850 238 C 1075 262 1222 382 1328 548" fill="none" stroke="url(#arc)" stroke-width="34" stroke-linecap="round" opacity="0.36" filter="url(#soft)" />
  <path d="M -105 675 C 150 342 545 222 842 248 C 1058 267 1208 377 1302 520" fill="none" stroke="url(#arc)" stroke-width="7" stroke-linecap="round" opacity="0.72" filter="url(#glow)" />
  <path d="M -70 666 C 178 354 552 238 826 260 C 1030 276 1178 378 1260 498" fill="none" stroke="#ffe6f7" stroke-width="1.6" stroke-linecap="round" opacity="0.64" />
  <path d="M 42 610 C 290 382 594 302 828 330 C 1002 350 1110 430 1176 522" fill="none" stroke="#bc62ff" stroke-width="1.2" stroke-linecap="round" opacity="0.26" />
</svg>
